M48
; DRILL file {KiCad (5.1.4-0)} date Thursday, 08 October 2020 at 05:30:11 pm
; FORMAT={-:-/ absolute / inch / decimal}
; #@! TF.CreationDate,2020-10-08T17:30:11+11:00
; #@! TF.GenerationSoftware,Kicad,Pcbnew,(5.1.4-0)
; #@! TF.FileFunction,Plated,1,2,PTH
FMAT,2
INCH
T1C0.0157
T2C0.0276
T3C0.0430
T4C0.0579
%
G90
G05
T1
X1.5938Y-1.9688
X2.2875Y-2.0063
X3.0375Y-2.025
X3.7875Y-2.0562
X4.725Y-2.0875
X5.475Y-1.8687
X6.0312Y-3.3125
X6.0625Y-4.0
X6.225Y-1.7875
T2
X4.3125Y-2.2835
X4.3125Y-2.5906
X4.5Y-4.5335
X4.5Y-4.8406
X2.0625Y-1.534
X4.5Y-1.841
X4.5Y-1.534
X5.25Y-4.5335
X6.3157Y-2.8125
X6.6228Y-2.8125
X2.0625Y-2.6594
X2.0625Y-2.9665
X2.8125Y-4.5344
X2.8125Y-4.8415
X4.3125Y-3.034
X4.3125Y-3.341
X5.5652Y-2.8125
X5.8723Y-2.8125
X3.5625Y-3.7835
X3.5625Y-4.0906
X2.8125Y-1.534
X2.8125Y-1.841
X5.25Y-4.8406
X3.5625Y-2.2835
X3.5625Y-2.5906
X4.3125Y-1.534
X4.3125Y-1.841
X2.0625Y-1.841
X6.2215Y-1.3125
X6.5285Y-1.3125
X5.25Y-3.7835
X5.25Y-4.0906
X3.5625Y-3.034
X3.5625Y-3.341
X4.5Y-2.284
X4.5Y-2.591
X5.0285Y-1.3125
X4.7215Y-1.3125
X6.0Y-4.534
X6.0Y-4.841
X2.8125Y-3.7844
X2.8125Y-4.0915
X2.8125Y-2.284
X2.8125Y-2.591
X3.5625Y-1.534
X3.5625Y-1.841
X4.3125Y-4.5335
X4.3125Y-4.8406
X4.3125Y-3.7844
X4.3125Y-4.0915
X2.8125Y-3.034
X2.8125Y-3.341
X2.0625Y-4.1585
X2.0625Y-4.4656
T3
X5.325Y-1.2625
X5.325Y-1.3625
X5.325Y-1.4625
X5.325Y-1.5625
X5.325Y-1.6625
X5.325Y-1.7625
X5.325Y-1.8625
X5.325Y-1.9625
X5.325Y-2.0625
X5.325Y-2.1625
X5.325Y-2.2625
X5.325Y-2.3625
X5.925Y-1.2625
X5.925Y-1.3625
X5.925Y-1.4625
X5.925Y-1.5625
X5.925Y-1.6625
X5.925Y-1.7625
X5.925Y-1.8625
X5.925Y-1.9625
X5.925Y-2.0625
X5.925Y-2.1625
X5.925Y-2.2625
X5.925Y-2.3625
T4
X3.4125Y-4.5875
X3.6625Y-4.4875
X6.225Y-4.5875
X6.475Y-4.4875
X2.2875Y-1.5875
X2.5375Y-1.4875
X2.2875Y-4.5875
X2.5375Y-4.4875
X6.225Y-2.3375
X6.475Y-2.2375
X5.725Y-2.2375
X1.5375Y-1.5875
X1.7875Y-1.4875
X5.475Y-3.8375
X5.725Y-3.7375
X3.7875Y-2.3375
X4.0375Y-2.2375
X5.475Y-4.5875
X5.725Y-4.4875
X2.2875Y-3.8375
X3.7875Y-3.8375
X4.0375Y-3.7375
X2.5375Y-3.7375
X1.4875Y-4.2125
X5.475Y-2.3375
X1.5875Y-4.4625
X3.0375Y-3.8375
X3.2875Y-3.7375
X3.7875Y-3.0875
X4.0375Y-2.9875
X3.0375Y-2.3375
X3.2875Y-2.2375
X3.0375Y-3.0875
X3.2875Y-2.9875
X2.5375Y-2.2375
X4.725Y-2.3375
X2.2875Y-2.3375
X6.225Y-1.5875
X6.475Y-1.4875
X2.2875Y-3.0875
X2.5375Y-2.9875
X1.4875Y-2.7125
X5.475Y-1.5875
X1.5875Y-2.9625
X5.725Y-1.4875
X4.975Y-2.2375
X4.725Y-4.5875
X4.975Y-4.4875
X3.7875Y-1.5875
X4.0375Y-1.4875
X3.0375Y-1.5875
X3.2875Y-1.4875
X4.725Y-1.5875
X4.975Y-1.4875
T0
M30
