M48
; DRILL file {KiCad (5.1.4-0)} date Thursday, 08 October 2020 at 05:30:11 pm
; FORMAT={-:-/ absolute / inch / decimal}
; #@! TF.CreationDate,2020-10-08T17:30:11+11:00
; #@! TF.GenerationSoftware,Kicad,Pcbnew,(5.1.4-0)
; #@! TF.FileFunction,NonPlated,1,2,NPTH
FMAT,2
INCH
T1C0.0689
T2C0.1200
T3C0.1570
%
G90
G05
T1
X3.7375Y-2.4375
X4.1375Y-2.4375
X2.6375Y-2.4375
X6.175Y-1.6875
X6.575Y-1.6875
X2.2375Y-3.9375
X2.6375Y-3.9375
X4.1375Y-3.9375
X3.7375Y-3.1875
X4.1375Y-3.1875
X1.6875Y-4.1125
X1.6875Y-4.5125
X2.9875Y-3.9375
X3.3875Y-3.9375
X5.425Y-4.6875
X5.825Y-4.6875
X3.7375Y-3.9375
X2.9875Y-2.4375
X3.3875Y-2.4375
X5.425Y-1.6875
X5.825Y-1.6875
X2.9875Y-3.1875
X3.3875Y-3.1875
X4.675Y-2.4375
X5.075Y-2.4375
X2.2375Y-2.4375
X3.7375Y-1.6875
X4.1375Y-1.6875
X2.2375Y-3.1875
X1.6875Y-2.6125
X1.6875Y-3.0125
X4.675Y-4.6875
X5.075Y-4.6875
X2.6375Y-3.1875
X2.2375Y-4.6875
X2.6375Y-4.6875
X3.3625Y-4.6875
X3.7625Y-4.6875
X2.9875Y-1.6875
X6.175Y-4.6875
X6.575Y-4.6875
X4.675Y-1.6875
X5.075Y-1.6875
X6.175Y-2.4375
X6.575Y-2.4375
X3.3875Y-1.6875
X5.425Y-3.9375
X5.825Y-3.9375
X5.425Y-2.4375
X5.825Y-2.4375
X2.2375Y-1.6875
X2.6375Y-1.6875
X1.4875Y-1.6875
X1.8875Y-1.6875
T2
X1.4125Y-3.8438
X3.0938Y-4.9625
X4.0312Y-4.9625
X1.4125Y-4.7812
X1.4125Y-2.3438
X1.4125Y-3.2812
T3
X6.375Y-4.6875
X2.4375Y-1.6875
X1.6875Y-1.6875
X5.625Y-3.9375
X3.9375Y-2.4375
X6.375Y-1.6875
X2.4375Y-3.9375
X3.9375Y-3.9375
X3.9375Y-3.1875
X1.6875Y-4.3125
X2.0125Y-3.8438
X2.0125Y-4.7812
X3.1875Y-2.4375
X3.1875Y-3.9375
X5.625Y-4.6875
X5.625Y-1.6875
X3.1875Y-3.1875
X2.4375Y-2.4375
X1.6875Y-2.8125
X2.0125Y-2.3438
X2.0125Y-3.2812
X4.875Y-2.4375
X3.9375Y-1.6875
X2.4375Y-3.1875
X2.4375Y-4.6875
X3.0938Y-4.3625
X3.5625Y-4.6875
X4.0312Y-4.3625
X3.1875Y-1.6875
X4.875Y-1.6875
X4.875Y-4.6875
X6.375Y-2.4375
X5.625Y-2.4375
T0
M30
