G04 #@! TF.GenerationSoftware,KiCad,Pcbnew,(5.1.4-0)*
G04 #@! TF.CreationDate,2020-10-08T17:29:41+11:00*
G04 #@! TF.ProjectId,NumNavPad,4e756d4e-6176-4506-9164-2e6b69636164,rev?*
G04 #@! TF.SameCoordinates,Original*
G04 #@! TF.FileFunction,Legend,Bot*
G04 #@! TF.FilePolarity,Positive*
%FSLAX46Y46*%
G04 Gerber Fmt 4.6, Leading zero omitted, Abs format (unit mm)*
G04 Created by KiCad (PCBNEW (5.1.4-0)) date 2020-10-08 17:29:41*
%MOMM*%
%LPD*%
G04 APERTURE LIST*
%ADD10C,0.381000*%
%ADD11C,0.150000*%
%ADD12C,0.200000*%
%ADD13C,2.352000*%
%ADD14C,4.089800*%
%ADD15C,1.852000*%
%ADD16C,1.854600*%
%ADD17R,1.854600X1.854600*%
%ADD18C,3.150000*%
%ADD19C,1.702000*%
%ADD20R,1.702000X1.702000*%
%ADD21R,1.302000X1.302000*%
G04 APERTURE END LIST*
D10*
X149225000Y-30797500D02*
X151765000Y-30797500D01*
X151765000Y-28257500D02*
X151765000Y-30797500D01*
X133985000Y-28257500D02*
X151765000Y-28257500D01*
X133985000Y-30797500D02*
X133985000Y-28257500D01*
D11*
G36*
X137943432Y-37276860D02*
G01*
X137943432Y-37476860D01*
X138043432Y-37476860D01*
X138043432Y-37276860D01*
X137943432Y-37276860D01*
G37*
X137943432Y-37276860D02*
X137943432Y-37476860D01*
X138043432Y-37476860D01*
X138043432Y-37276860D01*
X137943432Y-37276860D01*
G36*
X138343432Y-36676860D02*
G01*
X138343432Y-37476860D01*
X138443432Y-37476860D01*
X138443432Y-36676860D01*
X138343432Y-36676860D01*
G37*
X138343432Y-36676860D02*
X138343432Y-37476860D01*
X138443432Y-37476860D01*
X138443432Y-36676860D01*
X138343432Y-36676860D01*
G36*
X137943432Y-36676860D02*
G01*
X137943432Y-36776860D01*
X138443432Y-36776860D01*
X138443432Y-36676860D01*
X137943432Y-36676860D01*
G37*
X137943432Y-36676860D02*
X137943432Y-36776860D01*
X138443432Y-36776860D01*
X138443432Y-36676860D01*
X137943432Y-36676860D01*
G36*
X138143432Y-37076860D02*
G01*
X138143432Y-37176860D01*
X138243432Y-37176860D01*
X138243432Y-37076860D01*
X138143432Y-37076860D01*
G37*
X138143432Y-37076860D02*
X138143432Y-37176860D01*
X138243432Y-37176860D01*
X138243432Y-37076860D01*
X138143432Y-37076860D01*
G36*
X137943432Y-36676860D02*
G01*
X137943432Y-36976860D01*
X138043432Y-36976860D01*
X138043432Y-36676860D01*
X137943432Y-36676860D01*
G37*
X137943432Y-36676860D02*
X137943432Y-36976860D01*
X138043432Y-36976860D01*
X138043432Y-36676860D01*
X137943432Y-36676860D01*
D10*
X149225000Y-33337500D02*
X151765000Y-33337500D01*
X149225000Y-30797500D02*
X149225000Y-33337500D01*
X133985000Y-61277500D02*
X133985000Y-30797500D01*
X151765000Y-61277500D02*
X133985000Y-61277500D01*
X151765000Y-30797500D02*
X151765000Y-61277500D01*
D12*
X151200000Y-116262500D02*
X151200000Y-122062500D01*
X153600000Y-116262500D02*
X151200000Y-116262500D01*
X153600000Y-122062500D02*
X153600000Y-116262500D01*
X153600000Y-121987500D02*
X151200000Y-121987500D01*
X153600000Y-121862500D02*
X151200000Y-121862500D01*
X151200000Y-122087500D02*
X153600000Y-122087500D01*
X153600000Y-121687500D02*
X151200000Y-121687500D01*
X153600000Y-121512500D02*
X151200000Y-121512500D01*
X153600000Y-121337500D02*
X151200000Y-121337500D01*
X132150000Y-116250000D02*
X132150000Y-122050000D01*
X134550000Y-116250000D02*
X132150000Y-116250000D01*
X134550000Y-122050000D02*
X134550000Y-116250000D01*
X134550000Y-121975000D02*
X132150000Y-121975000D01*
X134550000Y-121850000D02*
X132150000Y-121850000D01*
X132150000Y-122075000D02*
X134550000Y-122075000D01*
X134550000Y-121675000D02*
X132150000Y-121675000D01*
X134550000Y-121500000D02*
X132150000Y-121500000D01*
X134550000Y-121325000D02*
X132150000Y-121325000D01*
X113100000Y-116250000D02*
X113100000Y-122050000D01*
X115500000Y-116250000D02*
X113100000Y-116250000D01*
X115500000Y-122050000D02*
X115500000Y-116250000D01*
X115500000Y-121975000D02*
X113100000Y-121975000D01*
X115500000Y-121850000D02*
X113100000Y-121850000D01*
X113100000Y-122075000D02*
X115500000Y-122075000D01*
X115500000Y-121675000D02*
X113100000Y-121675000D01*
X115500000Y-121500000D02*
X113100000Y-121500000D01*
X115500000Y-121325000D02*
X113100000Y-121325000D01*
X108337500Y-116250000D02*
X108337500Y-122050000D01*
X110737500Y-116250000D02*
X108337500Y-116250000D01*
X110737500Y-122050000D02*
X110737500Y-116250000D01*
X110737500Y-121975000D02*
X108337500Y-121975000D01*
X110737500Y-121850000D02*
X108337500Y-121850000D01*
X108337500Y-122075000D02*
X110737500Y-122075000D01*
X110737500Y-121675000D02*
X108337500Y-121675000D01*
X110737500Y-121500000D02*
X108337500Y-121500000D01*
X110737500Y-121325000D02*
X108337500Y-121325000D01*
X70237500Y-116275000D02*
X70237500Y-122075000D01*
X72637500Y-116275000D02*
X70237500Y-116275000D01*
X72637500Y-122075000D02*
X72637500Y-116275000D01*
X72637500Y-122000000D02*
X70237500Y-122000000D01*
X72637500Y-121875000D02*
X70237500Y-121875000D01*
X70237500Y-122100000D02*
X72637500Y-122100000D01*
X72637500Y-121700000D02*
X70237500Y-121700000D01*
X72637500Y-121525000D02*
X70237500Y-121525000D01*
X72637500Y-121350000D02*
X70237500Y-121350000D01*
X132150000Y-97200000D02*
X132150000Y-103000000D01*
X134550000Y-97200000D02*
X132150000Y-97200000D01*
X134550000Y-103000000D02*
X134550000Y-97200000D01*
X134550000Y-102925000D02*
X132150000Y-102925000D01*
X134550000Y-102800000D02*
X132150000Y-102800000D01*
X132150000Y-103025000D02*
X134550000Y-103025000D01*
X134550000Y-102625000D02*
X132150000Y-102625000D01*
X134550000Y-102450000D02*
X132150000Y-102450000D01*
X134550000Y-102275000D02*
X132150000Y-102275000D01*
X108337500Y-97225000D02*
X108337500Y-103025000D01*
X110737500Y-97225000D02*
X108337500Y-97225000D01*
X110737500Y-103025000D02*
X110737500Y-97225000D01*
X110737500Y-102950000D02*
X108337500Y-102950000D01*
X110737500Y-102825000D02*
X108337500Y-102825000D01*
X108337500Y-103050000D02*
X110737500Y-103050000D01*
X110737500Y-102650000D02*
X108337500Y-102650000D01*
X110737500Y-102475000D02*
X108337500Y-102475000D01*
X110737500Y-102300000D02*
X108337500Y-102300000D01*
X89287500Y-97200000D02*
X89287500Y-103000000D01*
X91687500Y-97200000D02*
X89287500Y-97200000D01*
X91687500Y-103000000D02*
X91687500Y-97200000D01*
X91687500Y-102925000D02*
X89287500Y-102925000D01*
X91687500Y-102800000D02*
X89287500Y-102800000D01*
X89287500Y-103025000D02*
X91687500Y-103025000D01*
X91687500Y-102625000D02*
X89287500Y-102625000D01*
X91687500Y-102450000D02*
X89287500Y-102450000D01*
X91687500Y-102275000D02*
X89287500Y-102275000D01*
X70237500Y-97225000D02*
X70237500Y-103025000D01*
X72637500Y-97225000D02*
X70237500Y-97225000D01*
X72637500Y-103025000D02*
X72637500Y-97225000D01*
X72637500Y-102950000D02*
X70237500Y-102950000D01*
X72637500Y-102825000D02*
X70237500Y-102825000D01*
X70237500Y-103050000D02*
X72637500Y-103050000D01*
X72637500Y-102650000D02*
X70237500Y-102650000D01*
X72637500Y-102475000D02*
X70237500Y-102475000D01*
X72637500Y-102300000D02*
X70237500Y-102300000D01*
X51187500Y-106725000D02*
X51187500Y-112525000D01*
X53587500Y-106725000D02*
X51187500Y-106725000D01*
X53587500Y-112525000D02*
X53587500Y-106725000D01*
X53587500Y-112450000D02*
X51187500Y-112450000D01*
X53587500Y-112325000D02*
X51187500Y-112325000D01*
X51187500Y-112550000D02*
X53587500Y-112550000D01*
X53587500Y-112150000D02*
X51187500Y-112150000D01*
X53587500Y-111975000D02*
X51187500Y-111975000D01*
X53587500Y-111800000D02*
X51187500Y-111800000D01*
X108337500Y-78162500D02*
X108337500Y-83962500D01*
X110737500Y-78162500D02*
X108337500Y-78162500D01*
X110737500Y-83962500D02*
X110737500Y-78162500D01*
X110737500Y-83887500D02*
X108337500Y-83887500D01*
X110737500Y-83762500D02*
X108337500Y-83762500D01*
X108337500Y-83987500D02*
X110737500Y-83987500D01*
X110737500Y-83587500D02*
X108337500Y-83587500D01*
X110737500Y-83412500D02*
X108337500Y-83412500D01*
X110737500Y-83237500D02*
X108337500Y-83237500D01*
X89287500Y-78162500D02*
X89287500Y-83962500D01*
X91687500Y-78162500D02*
X89287500Y-78162500D01*
X91687500Y-83962500D02*
X91687500Y-78162500D01*
X91687500Y-83887500D02*
X89287500Y-83887500D01*
X91687500Y-83762500D02*
X89287500Y-83762500D01*
X89287500Y-83987500D02*
X91687500Y-83987500D01*
X91687500Y-83587500D02*
X89287500Y-83587500D01*
X91687500Y-83412500D02*
X89287500Y-83412500D01*
X91687500Y-83237500D02*
X89287500Y-83237500D01*
X70237500Y-78162500D02*
X70237500Y-83962500D01*
X72637500Y-78162500D02*
X70237500Y-78162500D01*
X72637500Y-83962500D02*
X72637500Y-78162500D01*
X72637500Y-83887500D02*
X70237500Y-83887500D01*
X72637500Y-83762500D02*
X70237500Y-83762500D01*
X70237500Y-83987500D02*
X72637500Y-83987500D01*
X72637500Y-83587500D02*
X70237500Y-83587500D01*
X72637500Y-83412500D02*
X70237500Y-83412500D01*
X72637500Y-83237500D02*
X70237500Y-83237500D01*
X167118750Y-70237500D02*
X161318750Y-70237500D01*
X167118750Y-72637500D02*
X167118750Y-70237500D01*
X161318750Y-72637500D02*
X167118750Y-72637500D01*
X161393750Y-72637500D02*
X161393750Y-70237500D01*
X161518750Y-72637500D02*
X161518750Y-70237500D01*
X161293750Y-70237500D02*
X161293750Y-72637500D01*
X161693750Y-72637500D02*
X161693750Y-70237500D01*
X161868750Y-72637500D02*
X161868750Y-70237500D01*
X162043750Y-72637500D02*
X162043750Y-70237500D01*
X148056250Y-70237500D02*
X142256250Y-70237500D01*
X148056250Y-72637500D02*
X148056250Y-70237500D01*
X142256250Y-72637500D02*
X148056250Y-72637500D01*
X142331250Y-72637500D02*
X142331250Y-70237500D01*
X142456250Y-72637500D02*
X142456250Y-70237500D01*
X142231250Y-70237500D02*
X142231250Y-72637500D01*
X142631250Y-72637500D02*
X142631250Y-70237500D01*
X142806250Y-72637500D02*
X142806250Y-70237500D01*
X142981250Y-72637500D02*
X142981250Y-70237500D01*
X113100000Y-59112500D02*
X113100000Y-64912500D01*
X115500000Y-59112500D02*
X113100000Y-59112500D01*
X115500000Y-64912500D02*
X115500000Y-59112500D01*
X115500000Y-64837500D02*
X113100000Y-64837500D01*
X115500000Y-64712500D02*
X113100000Y-64712500D01*
X113100000Y-64937500D02*
X115500000Y-64937500D01*
X115500000Y-64537500D02*
X113100000Y-64537500D01*
X115500000Y-64362500D02*
X113100000Y-64362500D01*
X115500000Y-64187500D02*
X113100000Y-64187500D01*
X108337500Y-59100000D02*
X108337500Y-64900000D01*
X110737500Y-59100000D02*
X108337500Y-59100000D01*
X110737500Y-64900000D02*
X110737500Y-59100000D01*
X110737500Y-64825000D02*
X108337500Y-64825000D01*
X110737500Y-64700000D02*
X108337500Y-64700000D01*
X108337500Y-64925000D02*
X110737500Y-64925000D01*
X110737500Y-64525000D02*
X108337500Y-64525000D01*
X110737500Y-64350000D02*
X108337500Y-64350000D01*
X110737500Y-64175000D02*
X108337500Y-64175000D01*
X89287500Y-59100000D02*
X89287500Y-64900000D01*
X91687500Y-59100000D02*
X89287500Y-59100000D01*
X91687500Y-64900000D02*
X91687500Y-59100000D01*
X91687500Y-64825000D02*
X89287500Y-64825000D01*
X91687500Y-64700000D02*
X89287500Y-64700000D01*
X89287500Y-64925000D02*
X91687500Y-64925000D01*
X91687500Y-64525000D02*
X89287500Y-64525000D01*
X91687500Y-64350000D02*
X89287500Y-64350000D01*
X91687500Y-64175000D02*
X89287500Y-64175000D01*
X70237500Y-59112500D02*
X70237500Y-64912500D01*
X72637500Y-59112500D02*
X70237500Y-59112500D01*
X72637500Y-64912500D02*
X72637500Y-59112500D01*
X72637500Y-64837500D02*
X70237500Y-64837500D01*
X72637500Y-64712500D02*
X70237500Y-64712500D01*
X70237500Y-64937500D02*
X72637500Y-64937500D01*
X72637500Y-64537500D02*
X70237500Y-64537500D01*
X72637500Y-64362500D02*
X70237500Y-64362500D01*
X72637500Y-64187500D02*
X70237500Y-64187500D01*
X51187500Y-68650000D02*
X51187500Y-74450000D01*
X53587500Y-68650000D02*
X51187500Y-68650000D01*
X53587500Y-74450000D02*
X53587500Y-68650000D01*
X53587500Y-74375000D02*
X51187500Y-74375000D01*
X53587500Y-74250000D02*
X51187500Y-74250000D01*
X51187500Y-74475000D02*
X53587500Y-74475000D01*
X53587500Y-74075000D02*
X51187500Y-74075000D01*
X53587500Y-73900000D02*
X51187500Y-73900000D01*
X53587500Y-73725000D02*
X51187500Y-73725000D01*
X164725000Y-32137500D02*
X158925000Y-32137500D01*
X164725000Y-34537500D02*
X164725000Y-32137500D01*
X158925000Y-34537500D02*
X164725000Y-34537500D01*
X159000000Y-34537500D02*
X159000000Y-32137500D01*
X159125000Y-34537500D02*
X159125000Y-32137500D01*
X158900000Y-32137500D02*
X158900000Y-34537500D01*
X159300000Y-34537500D02*
X159300000Y-32137500D01*
X159475000Y-34537500D02*
X159475000Y-32137500D01*
X159650000Y-34537500D02*
X159650000Y-32137500D01*
X126625000Y-32137500D02*
X120825000Y-32137500D01*
X126625000Y-34537500D02*
X126625000Y-32137500D01*
X120825000Y-34537500D02*
X126625000Y-34537500D01*
X120900000Y-34537500D02*
X120900000Y-32137500D01*
X121025000Y-34537500D02*
X121025000Y-32137500D01*
X120800000Y-32137500D02*
X120800000Y-34537500D01*
X121200000Y-34537500D02*
X121200000Y-32137500D01*
X121375000Y-34537500D02*
X121375000Y-32137500D01*
X121550000Y-34537500D02*
X121550000Y-32137500D01*
X113100000Y-40062500D02*
X113100000Y-45862500D01*
X115500000Y-40062500D02*
X113100000Y-40062500D01*
X115500000Y-45862500D02*
X115500000Y-40062500D01*
X115500000Y-45787500D02*
X113100000Y-45787500D01*
X115500000Y-45662500D02*
X113100000Y-45662500D01*
X113100000Y-45887500D02*
X115500000Y-45887500D01*
X115500000Y-45487500D02*
X113100000Y-45487500D01*
X115500000Y-45312500D02*
X113100000Y-45312500D01*
X115500000Y-45137500D02*
X113100000Y-45137500D01*
X108337500Y-40062500D02*
X108337500Y-45862500D01*
X110737500Y-40062500D02*
X108337500Y-40062500D01*
X110737500Y-45862500D02*
X110737500Y-40062500D01*
X110737500Y-45787500D02*
X108337500Y-45787500D01*
X110737500Y-45662500D02*
X108337500Y-45662500D01*
X108337500Y-45887500D02*
X110737500Y-45887500D01*
X110737500Y-45487500D02*
X108337500Y-45487500D01*
X110737500Y-45312500D02*
X108337500Y-45312500D01*
X110737500Y-45137500D02*
X108337500Y-45137500D01*
X89287500Y-40062500D02*
X89287500Y-45862500D01*
X91687500Y-40062500D02*
X89287500Y-40062500D01*
X91687500Y-45862500D02*
X91687500Y-40062500D01*
X91687500Y-45787500D02*
X89287500Y-45787500D01*
X91687500Y-45662500D02*
X89287500Y-45662500D01*
X89287500Y-45887500D02*
X91687500Y-45887500D01*
X91687500Y-45487500D02*
X89287500Y-45487500D01*
X91687500Y-45312500D02*
X89287500Y-45312500D01*
X91687500Y-45137500D02*
X89287500Y-45137500D01*
X70237500Y-40062500D02*
X70237500Y-45862500D01*
X72637500Y-40062500D02*
X70237500Y-40062500D01*
X72637500Y-45862500D02*
X72637500Y-40062500D01*
X72637500Y-45787500D02*
X70237500Y-45787500D01*
X72637500Y-45662500D02*
X70237500Y-45662500D01*
X70237500Y-45887500D02*
X72637500Y-45887500D01*
X72637500Y-45487500D02*
X70237500Y-45487500D01*
X72637500Y-45312500D02*
X70237500Y-45312500D01*
X72637500Y-45137500D02*
X70237500Y-45137500D01*
X51187500Y-40062500D02*
X51187500Y-45862500D01*
X53587500Y-40062500D02*
X51187500Y-40062500D01*
X53587500Y-45862500D02*
X53587500Y-40062500D01*
X53587500Y-45787500D02*
X51187500Y-45787500D01*
X53587500Y-45662500D02*
X51187500Y-45662500D01*
X51187500Y-45887500D02*
X53587500Y-45887500D01*
X53587500Y-45487500D02*
X51187500Y-45487500D01*
X53587500Y-45312500D02*
X51187500Y-45312500D01*
X53587500Y-45137500D02*
X51187500Y-45137500D01*
D11*
X148637348Y-31629404D02*
X148180205Y-31629404D01*
X148408776Y-32429404D02*
X148408776Y-31629404D01*
X147989729Y-31629404D02*
X147456395Y-32429404D01*
X147456395Y-31629404D02*
X147989729Y-32429404D01*
X146999252Y-31629404D02*
X146923062Y-31629404D01*
X146846872Y-31667500D01*
X146808776Y-31705595D01*
X146770681Y-31781785D01*
X146732586Y-31934166D01*
X146732586Y-32124642D01*
X146770681Y-32277023D01*
X146808776Y-32353214D01*
X146846872Y-32391309D01*
X146923062Y-32429404D01*
X146999252Y-32429404D01*
X147075443Y-32391309D01*
X147113538Y-32353214D01*
X147151633Y-32277023D01*
X147189729Y-32124642D01*
X147189729Y-31934166D01*
X147151633Y-31781785D01*
X147113538Y-31705595D01*
X147075443Y-31667500D01*
X146999252Y-31629404D01*
X145818300Y-31591309D02*
X146504014Y-32619880D01*
X145551633Y-32429404D02*
X145551633Y-31629404D01*
X145361157Y-31629404D01*
X145246872Y-31667500D01*
X145170681Y-31743690D01*
X145132586Y-31819880D01*
X145094491Y-31972261D01*
X145094491Y-32086547D01*
X145132586Y-32238928D01*
X145170681Y-32315119D01*
X145246872Y-32391309D01*
X145361157Y-32429404D01*
X145551633Y-32429404D01*
X144827824Y-31629404D02*
X144332586Y-31629404D01*
X144599252Y-31934166D01*
X144484967Y-31934166D01*
X144408776Y-31972261D01*
X144370681Y-32010357D01*
X144332586Y-32086547D01*
X144332586Y-32277023D01*
X144370681Y-32353214D01*
X144408776Y-32391309D01*
X144484967Y-32429404D01*
X144713538Y-32429404D01*
X144789729Y-32391309D01*
X144827824Y-32353214D01*
X148926476Y-34969404D02*
X148926476Y-34169404D01*
X148736000Y-34169404D01*
X148621714Y-34207500D01*
X148545523Y-34283690D01*
X148507428Y-34359880D01*
X148469333Y-34512261D01*
X148469333Y-34626547D01*
X148507428Y-34778928D01*
X148545523Y-34855119D01*
X148621714Y-34931309D01*
X148736000Y-34969404D01*
X148926476Y-34969404D01*
X148164571Y-34245595D02*
X148126476Y-34207500D01*
X148050285Y-34169404D01*
X147859809Y-34169404D01*
X147783619Y-34207500D01*
X147745523Y-34245595D01*
X147707428Y-34321785D01*
X147707428Y-34397976D01*
X147745523Y-34512261D01*
X148202666Y-34969404D01*
X147707428Y-34969404D01*
X148926476Y-45129404D02*
X148926476Y-44329404D01*
X148736000Y-44329404D01*
X148621714Y-44367500D01*
X148545523Y-44443690D01*
X148507428Y-44519880D01*
X148469333Y-44672261D01*
X148469333Y-44786547D01*
X148507428Y-44938928D01*
X148545523Y-45015119D01*
X148621714Y-45091309D01*
X148736000Y-45129404D01*
X148926476Y-45129404D01*
X147974095Y-44329404D02*
X147897904Y-44329404D01*
X147821714Y-44367500D01*
X147783619Y-44405595D01*
X147745523Y-44481785D01*
X147707428Y-44634166D01*
X147707428Y-44824642D01*
X147745523Y-44977023D01*
X147783619Y-45053214D01*
X147821714Y-45091309D01*
X147897904Y-45129404D01*
X147974095Y-45129404D01*
X148050285Y-45091309D01*
X148088380Y-45053214D01*
X148126476Y-44977023D01*
X148164571Y-44824642D01*
X148164571Y-44634166D01*
X148126476Y-44481785D01*
X148088380Y-44405595D01*
X148050285Y-44367500D01*
X147974095Y-44329404D01*
X148926476Y-42589404D02*
X148926476Y-41789404D01*
X148736000Y-41789404D01*
X148621714Y-41827500D01*
X148545523Y-41903690D01*
X148507428Y-41979880D01*
X148469333Y-42132261D01*
X148469333Y-42246547D01*
X148507428Y-42398928D01*
X148545523Y-42475119D01*
X148621714Y-42551309D01*
X148736000Y-42589404D01*
X148926476Y-42589404D01*
X147707428Y-42589404D02*
X148164571Y-42589404D01*
X147936000Y-42589404D02*
X147936000Y-41789404D01*
X148012190Y-41903690D01*
X148088380Y-41979880D01*
X148164571Y-42017976D01*
X148945523Y-39287500D02*
X149021714Y-39249404D01*
X149136000Y-39249404D01*
X149250285Y-39287500D01*
X149326476Y-39363690D01*
X149364571Y-39439880D01*
X149402666Y-39592261D01*
X149402666Y-39706547D01*
X149364571Y-39858928D01*
X149326476Y-39935119D01*
X149250285Y-40011309D01*
X149136000Y-40049404D01*
X149059809Y-40049404D01*
X148945523Y-40011309D01*
X148907428Y-39973214D01*
X148907428Y-39706547D01*
X149059809Y-39706547D01*
X148564571Y-40049404D02*
X148564571Y-39249404D01*
X148107428Y-40049404D01*
X148107428Y-39249404D01*
X147726476Y-40049404D02*
X147726476Y-39249404D01*
X147536000Y-39249404D01*
X147421714Y-39287500D01*
X147345523Y-39363690D01*
X147307428Y-39439880D01*
X147269333Y-39592261D01*
X147269333Y-39706547D01*
X147307428Y-39858928D01*
X147345523Y-39935119D01*
X147421714Y-40011309D01*
X147536000Y-40049404D01*
X147726476Y-40049404D01*
X148945523Y-36747500D02*
X149021714Y-36709404D01*
X149136000Y-36709404D01*
X149250285Y-36747500D01*
X149326476Y-36823690D01*
X149364571Y-36899880D01*
X149402666Y-37052261D01*
X149402666Y-37166547D01*
X149364571Y-37318928D01*
X149326476Y-37395119D01*
X149250285Y-37471309D01*
X149136000Y-37509404D01*
X149059809Y-37509404D01*
X148945523Y-37471309D01*
X148907428Y-37433214D01*
X148907428Y-37166547D01*
X149059809Y-37166547D01*
X148564571Y-37509404D02*
X148564571Y-36709404D01*
X148107428Y-37509404D01*
X148107428Y-36709404D01*
X147726476Y-37509404D02*
X147726476Y-36709404D01*
X147536000Y-36709404D01*
X147421714Y-36747500D01*
X147345523Y-36823690D01*
X147307428Y-36899880D01*
X147269333Y-37052261D01*
X147269333Y-37166547D01*
X147307428Y-37318928D01*
X147345523Y-37395119D01*
X147421714Y-37471309D01*
X147536000Y-37509404D01*
X147726476Y-37509404D01*
X148926476Y-47669404D02*
X148926476Y-46869404D01*
X148736000Y-46869404D01*
X148621714Y-46907500D01*
X148545523Y-46983690D01*
X148507428Y-47059880D01*
X148469333Y-47212261D01*
X148469333Y-47326547D01*
X148507428Y-47478928D01*
X148545523Y-47555119D01*
X148621714Y-47631309D01*
X148736000Y-47669404D01*
X148926476Y-47669404D01*
X147783619Y-47136071D02*
X147783619Y-47669404D01*
X147974095Y-46831309D02*
X148164571Y-47402738D01*
X147669333Y-47402738D01*
X148469333Y-50133214D02*
X148507428Y-50171309D01*
X148621714Y-50209404D01*
X148697904Y-50209404D01*
X148812190Y-50171309D01*
X148888380Y-50095119D01*
X148926476Y-50018928D01*
X148964571Y-49866547D01*
X148964571Y-49752261D01*
X148926476Y-49599880D01*
X148888380Y-49523690D01*
X148812190Y-49447500D01*
X148697904Y-49409404D01*
X148621714Y-49409404D01*
X148507428Y-49447500D01*
X148469333Y-49485595D01*
X147783619Y-49409404D02*
X147936000Y-49409404D01*
X148012190Y-49447500D01*
X148050285Y-49485595D01*
X148126476Y-49599880D01*
X148164571Y-49752261D01*
X148164571Y-50057023D01*
X148126476Y-50133214D01*
X148088380Y-50171309D01*
X148012190Y-50209404D01*
X147859809Y-50209404D01*
X147783619Y-50171309D01*
X147745523Y-50133214D01*
X147707428Y-50057023D01*
X147707428Y-49866547D01*
X147745523Y-49790357D01*
X147783619Y-49752261D01*
X147859809Y-49714166D01*
X148012190Y-49714166D01*
X148088380Y-49752261D01*
X148126476Y-49790357D01*
X148164571Y-49866547D01*
X148926476Y-52749404D02*
X148926476Y-51949404D01*
X148736000Y-51949404D01*
X148621714Y-51987500D01*
X148545523Y-52063690D01*
X148507428Y-52139880D01*
X148469333Y-52292261D01*
X148469333Y-52406547D01*
X148507428Y-52558928D01*
X148545523Y-52635119D01*
X148621714Y-52711309D01*
X148736000Y-52749404D01*
X148926476Y-52749404D01*
X148202666Y-51949404D02*
X147669333Y-51949404D01*
X148012190Y-52749404D01*
X148888380Y-54870357D02*
X148621714Y-54870357D01*
X148507428Y-55289404D02*
X148888380Y-55289404D01*
X148888380Y-54489404D01*
X148507428Y-54489404D01*
X147821714Y-54489404D02*
X147974095Y-54489404D01*
X148050285Y-54527500D01*
X148088380Y-54565595D01*
X148164571Y-54679880D01*
X148202666Y-54832261D01*
X148202666Y-55137023D01*
X148164571Y-55213214D01*
X148126476Y-55251309D01*
X148050285Y-55289404D01*
X147897904Y-55289404D01*
X147821714Y-55251309D01*
X147783619Y-55213214D01*
X147745523Y-55137023D01*
X147745523Y-54946547D01*
X147783619Y-54870357D01*
X147821714Y-54832261D01*
X147897904Y-54794166D01*
X148050285Y-54794166D01*
X148126476Y-54832261D01*
X148164571Y-54870357D01*
X148202666Y-54946547D01*
X148659809Y-57410357D02*
X148545523Y-57448452D01*
X148507428Y-57486547D01*
X148469333Y-57562738D01*
X148469333Y-57677023D01*
X148507428Y-57753214D01*
X148545523Y-57791309D01*
X148621714Y-57829404D01*
X148926476Y-57829404D01*
X148926476Y-57029404D01*
X148659809Y-57029404D01*
X148583619Y-57067500D01*
X148545523Y-57105595D01*
X148507428Y-57181785D01*
X148507428Y-57257976D01*
X148545523Y-57334166D01*
X148583619Y-57372261D01*
X148659809Y-57410357D01*
X148926476Y-57410357D01*
X147783619Y-57296071D02*
X147783619Y-57829404D01*
X147974095Y-56991309D02*
X148164571Y-57562738D01*
X147669333Y-57562738D01*
X137737809Y-54870357D02*
X137623523Y-54908452D01*
X137585428Y-54946547D01*
X137547333Y-55022738D01*
X137547333Y-55137023D01*
X137585428Y-55213214D01*
X137623523Y-55251309D01*
X137699714Y-55289404D01*
X138004476Y-55289404D01*
X138004476Y-54489404D01*
X137737809Y-54489404D01*
X137661619Y-54527500D01*
X137623523Y-54565595D01*
X137585428Y-54641785D01*
X137585428Y-54717976D01*
X137623523Y-54794166D01*
X137661619Y-54832261D01*
X137737809Y-54870357D01*
X138004476Y-54870357D01*
X137280666Y-54489404D02*
X136785428Y-54489404D01*
X137052095Y-54794166D01*
X136937809Y-54794166D01*
X136861619Y-54832261D01*
X136823523Y-54870357D01*
X136785428Y-54946547D01*
X136785428Y-55137023D01*
X136823523Y-55213214D01*
X136861619Y-55251309D01*
X136937809Y-55289404D01*
X137166380Y-55289404D01*
X137242571Y-55251309D01*
X137280666Y-55213214D01*
X137737809Y-52330357D02*
X137623523Y-52368452D01*
X137585428Y-52406547D01*
X137547333Y-52482738D01*
X137547333Y-52597023D01*
X137585428Y-52673214D01*
X137623523Y-52711309D01*
X137699714Y-52749404D01*
X138004476Y-52749404D01*
X138004476Y-51949404D01*
X137737809Y-51949404D01*
X137661619Y-51987500D01*
X137623523Y-52025595D01*
X137585428Y-52101785D01*
X137585428Y-52177976D01*
X137623523Y-52254166D01*
X137661619Y-52292261D01*
X137737809Y-52330357D01*
X138004476Y-52330357D01*
X136785428Y-52749404D02*
X137242571Y-52749404D01*
X137014000Y-52749404D02*
X137014000Y-51949404D01*
X137090190Y-52063690D01*
X137166380Y-52139880D01*
X137242571Y-52177976D01*
X137680666Y-42170357D02*
X137947333Y-42170357D01*
X137947333Y-42589404D02*
X137947333Y-41789404D01*
X137566380Y-41789404D01*
X136918761Y-42056071D02*
X136918761Y-42589404D01*
X137109238Y-41751309D02*
X137299714Y-42322738D01*
X136804476Y-42322738D01*
X138480666Y-39249404D02*
X138214000Y-40049404D01*
X137947333Y-39249404D01*
X137223523Y-39973214D02*
X137261619Y-40011309D01*
X137375904Y-40049404D01*
X137452095Y-40049404D01*
X137566380Y-40011309D01*
X137642571Y-39935119D01*
X137680666Y-39858928D01*
X137718761Y-39706547D01*
X137718761Y-39592261D01*
X137680666Y-39439880D01*
X137642571Y-39363690D01*
X137566380Y-39287500D01*
X137452095Y-39249404D01*
X137375904Y-39249404D01*
X137261619Y-39287500D01*
X137223523Y-39325595D01*
X136423523Y-39973214D02*
X136461619Y-40011309D01*
X136575904Y-40049404D01*
X136652095Y-40049404D01*
X136766380Y-40011309D01*
X136842571Y-39935119D01*
X136880666Y-39858928D01*
X136918761Y-39706547D01*
X136918761Y-39592261D01*
X136880666Y-39439880D01*
X136842571Y-39363690D01*
X136766380Y-39287500D01*
X136652095Y-39249404D01*
X136575904Y-39249404D01*
X136461619Y-39287500D01*
X136423523Y-39325595D01*
X137675213Y-37441309D02*
X137560927Y-37479404D01*
X137370451Y-37479404D01*
X137294260Y-37441309D01*
X137256165Y-37403214D01*
X137218070Y-37327023D01*
X137218070Y-37250833D01*
X137256165Y-37174642D01*
X137294260Y-37136547D01*
X137370451Y-37098452D01*
X137522832Y-37060357D01*
X137599022Y-37022261D01*
X137637118Y-36984166D01*
X137675213Y-36907976D01*
X137675213Y-36831785D01*
X137637118Y-36755595D01*
X137599022Y-36717500D01*
X137522832Y-36679404D01*
X137332356Y-36679404D01*
X137218070Y-36717500D01*
X136989499Y-36679404D02*
X136532356Y-36679404D01*
X136760927Y-37479404D02*
X136760927Y-36679404D01*
X138023523Y-34207500D02*
X138099714Y-34169404D01*
X138214000Y-34169404D01*
X138328285Y-34207500D01*
X138404476Y-34283690D01*
X138442571Y-34359880D01*
X138480666Y-34512261D01*
X138480666Y-34626547D01*
X138442571Y-34778928D01*
X138404476Y-34855119D01*
X138328285Y-34931309D01*
X138214000Y-34969404D01*
X138137809Y-34969404D01*
X138023523Y-34931309D01*
X137985428Y-34893214D01*
X137985428Y-34626547D01*
X138137809Y-34626547D01*
X137642571Y-34969404D02*
X137642571Y-34169404D01*
X137185428Y-34969404D01*
X137185428Y-34169404D01*
X136804476Y-34969404D02*
X136804476Y-34169404D01*
X136614000Y-34169404D01*
X136499714Y-34207500D01*
X136423523Y-34283690D01*
X136385428Y-34359880D01*
X136347333Y-34512261D01*
X136347333Y-34626547D01*
X136385428Y-34778928D01*
X136423523Y-34855119D01*
X136499714Y-34931309D01*
X136614000Y-34969404D01*
X136804476Y-34969404D01*
X137737809Y-32010357D02*
X137623523Y-32048452D01*
X137585428Y-32086547D01*
X137547333Y-32162738D01*
X137547333Y-32277023D01*
X137585428Y-32353214D01*
X137623523Y-32391309D01*
X137699714Y-32429404D01*
X138004476Y-32429404D01*
X138004476Y-31629404D01*
X137737809Y-31629404D01*
X137661619Y-31667500D01*
X137623523Y-31705595D01*
X137585428Y-31781785D01*
X137585428Y-31857976D01*
X137623523Y-31934166D01*
X137661619Y-31972261D01*
X137737809Y-32010357D01*
X138004476Y-32010357D01*
X137052095Y-31629404D02*
X136975904Y-31629404D01*
X136899714Y-31667500D01*
X136861619Y-31705595D01*
X136823523Y-31781785D01*
X136785428Y-31934166D01*
X136785428Y-32124642D01*
X136823523Y-32277023D01*
X136861619Y-32353214D01*
X136899714Y-32391309D01*
X136975904Y-32429404D01*
X137052095Y-32429404D01*
X137128285Y-32391309D01*
X137166380Y-32353214D01*
X137204476Y-32277023D01*
X137242571Y-32124642D01*
X137242571Y-31934166D01*
X137204476Y-31781785D01*
X137166380Y-31705595D01*
X137128285Y-31667500D01*
X137052095Y-31629404D01*
X137680666Y-44710357D02*
X137947333Y-44710357D01*
X137947333Y-45129404D02*
X137947333Y-44329404D01*
X137566380Y-44329404D01*
X136880666Y-44329404D02*
X137261619Y-44329404D01*
X137299714Y-44710357D01*
X137261619Y-44672261D01*
X137185428Y-44634166D01*
X136994952Y-44634166D01*
X136918761Y-44672261D01*
X136880666Y-44710357D01*
X136842571Y-44786547D01*
X136842571Y-44977023D01*
X136880666Y-45053214D01*
X136918761Y-45091309D01*
X136994952Y-45129404D01*
X137185428Y-45129404D01*
X137261619Y-45091309D01*
X137299714Y-45053214D01*
X137680666Y-47250357D02*
X137947333Y-47250357D01*
X137947333Y-47669404D02*
X137947333Y-46869404D01*
X137566380Y-46869404D01*
X136918761Y-46869404D02*
X137071142Y-46869404D01*
X137147333Y-46907500D01*
X137185428Y-46945595D01*
X137261619Y-47059880D01*
X137299714Y-47212261D01*
X137299714Y-47517023D01*
X137261619Y-47593214D01*
X137223523Y-47631309D01*
X137147333Y-47669404D01*
X136994952Y-47669404D01*
X136918761Y-47631309D01*
X136880666Y-47593214D01*
X136842571Y-47517023D01*
X136842571Y-47326547D01*
X136880666Y-47250357D01*
X136918761Y-47212261D01*
X136994952Y-47174166D01*
X137147333Y-47174166D01*
X137223523Y-47212261D01*
X137261619Y-47250357D01*
X137299714Y-47326547D01*
X137680666Y-49790357D02*
X137947333Y-49790357D01*
X137947333Y-50209404D02*
X137947333Y-49409404D01*
X137566380Y-49409404D01*
X137337809Y-49409404D02*
X136804476Y-49409404D01*
X137147333Y-50209404D01*
X137737809Y-57410357D02*
X137623523Y-57448452D01*
X137585428Y-57486547D01*
X137547333Y-57562738D01*
X137547333Y-57677023D01*
X137585428Y-57753214D01*
X137623523Y-57791309D01*
X137699714Y-57829404D01*
X138004476Y-57829404D01*
X138004476Y-57029404D01*
X137737809Y-57029404D01*
X137661619Y-57067500D01*
X137623523Y-57105595D01*
X137585428Y-57181785D01*
X137585428Y-57257976D01*
X137623523Y-57334166D01*
X137661619Y-57372261D01*
X137737809Y-57410357D01*
X138004476Y-57410357D01*
X137242571Y-57105595D02*
X137204476Y-57067500D01*
X137128285Y-57029404D01*
X136937809Y-57029404D01*
X136861619Y-57067500D01*
X136823523Y-57105595D01*
X136785428Y-57181785D01*
X136785428Y-57257976D01*
X136823523Y-57372261D01*
X137280666Y-57829404D01*
X136785428Y-57829404D01*
X137737809Y-59950357D02*
X137623523Y-59988452D01*
X137585428Y-60026547D01*
X137547333Y-60102738D01*
X137547333Y-60217023D01*
X137585428Y-60293214D01*
X137623523Y-60331309D01*
X137699714Y-60369404D01*
X138004476Y-60369404D01*
X138004476Y-59569404D01*
X137737809Y-59569404D01*
X137661619Y-59607500D01*
X137623523Y-59645595D01*
X137585428Y-59721785D01*
X137585428Y-59797976D01*
X137623523Y-59874166D01*
X137661619Y-59912261D01*
X137737809Y-59950357D01*
X138004476Y-59950357D01*
X136861619Y-59569404D02*
X137014000Y-59569404D01*
X137090190Y-59607500D01*
X137128285Y-59645595D01*
X137204476Y-59759880D01*
X137242571Y-59912261D01*
X137242571Y-60217023D01*
X137204476Y-60293214D01*
X137166380Y-60331309D01*
X137090190Y-60369404D01*
X136937809Y-60369404D01*
X136861619Y-60331309D01*
X136823523Y-60293214D01*
X136785428Y-60217023D01*
X136785428Y-60026547D01*
X136823523Y-59950357D01*
X136861619Y-59912261D01*
X136937809Y-59874166D01*
X137090190Y-59874166D01*
X137166380Y-59912261D01*
X137204476Y-59950357D01*
X137242571Y-60026547D01*
X148659809Y-59950357D02*
X148545523Y-59988452D01*
X148507428Y-60026547D01*
X148469333Y-60102738D01*
X148469333Y-60217023D01*
X148507428Y-60293214D01*
X148545523Y-60331309D01*
X148621714Y-60369404D01*
X148926476Y-60369404D01*
X148926476Y-59569404D01*
X148659809Y-59569404D01*
X148583619Y-59607500D01*
X148545523Y-59645595D01*
X148507428Y-59721785D01*
X148507428Y-59797976D01*
X148545523Y-59874166D01*
X148583619Y-59912261D01*
X148659809Y-59950357D01*
X148926476Y-59950357D01*
X147745523Y-59569404D02*
X148126476Y-59569404D01*
X148164571Y-59950357D01*
X148126476Y-59912261D01*
X148050285Y-59874166D01*
X147859809Y-59874166D01*
X147783619Y-59912261D01*
X147745523Y-59950357D01*
X147707428Y-60026547D01*
X147707428Y-60217023D01*
X147745523Y-60293214D01*
X147783619Y-60331309D01*
X147859809Y-60369404D01*
X148050285Y-60369404D01*
X148126476Y-60331309D01*
X148164571Y-60293214D01*
X150836904Y-118091071D02*
X150036904Y-118091071D01*
X150036904Y-118281547D01*
X150075000Y-118395833D01*
X150151190Y-118472023D01*
X150227380Y-118510119D01*
X150379761Y-118548214D01*
X150494047Y-118548214D01*
X150646428Y-118510119D01*
X150722619Y-118472023D01*
X150798809Y-118395833D01*
X150836904Y-118281547D01*
X150836904Y-118091071D01*
X150113095Y-118852976D02*
X150075000Y-118891071D01*
X150036904Y-118967261D01*
X150036904Y-119157738D01*
X150075000Y-119233928D01*
X150113095Y-119272023D01*
X150189285Y-119310119D01*
X150265476Y-119310119D01*
X150379761Y-119272023D01*
X150836904Y-118814880D01*
X150836904Y-119310119D01*
X150036904Y-119576785D02*
X150036904Y-120110119D01*
X150836904Y-119767261D01*
X131786904Y-118078571D02*
X130986904Y-118078571D01*
X130986904Y-118269047D01*
X131025000Y-118383333D01*
X131101190Y-118459523D01*
X131177380Y-118497619D01*
X131329761Y-118535714D01*
X131444047Y-118535714D01*
X131596428Y-118497619D01*
X131672619Y-118459523D01*
X131748809Y-118383333D01*
X131786904Y-118269047D01*
X131786904Y-118078571D01*
X131063095Y-118840476D02*
X131025000Y-118878571D01*
X130986904Y-118954761D01*
X130986904Y-119145238D01*
X131025000Y-119221428D01*
X131063095Y-119259523D01*
X131139285Y-119297619D01*
X131215476Y-119297619D01*
X131329761Y-119259523D01*
X131786904Y-118802380D01*
X131786904Y-119297619D01*
X130986904Y-119983333D02*
X130986904Y-119830952D01*
X131025000Y-119754761D01*
X131063095Y-119716666D01*
X131177380Y-119640476D01*
X131329761Y-119602380D01*
X131634523Y-119602380D01*
X131710714Y-119640476D01*
X131748809Y-119678571D01*
X131786904Y-119754761D01*
X131786904Y-119907142D01*
X131748809Y-119983333D01*
X131710714Y-120021428D01*
X131634523Y-120059523D01*
X131444047Y-120059523D01*
X131367857Y-120021428D01*
X131329761Y-119983333D01*
X131291666Y-119907142D01*
X131291666Y-119754761D01*
X131329761Y-119678571D01*
X131367857Y-119640476D01*
X131444047Y-119602380D01*
X112736904Y-118078571D02*
X111936904Y-118078571D01*
X111936904Y-118269047D01*
X111975000Y-118383333D01*
X112051190Y-118459523D01*
X112127380Y-118497619D01*
X112279761Y-118535714D01*
X112394047Y-118535714D01*
X112546428Y-118497619D01*
X112622619Y-118459523D01*
X112698809Y-118383333D01*
X112736904Y-118269047D01*
X112736904Y-118078571D01*
X112013095Y-118840476D02*
X111975000Y-118878571D01*
X111936904Y-118954761D01*
X111936904Y-119145238D01*
X111975000Y-119221428D01*
X112013095Y-119259523D01*
X112089285Y-119297619D01*
X112165476Y-119297619D01*
X112279761Y-119259523D01*
X112736904Y-118802380D01*
X112736904Y-119297619D01*
X111936904Y-120021428D02*
X111936904Y-119640476D01*
X112317857Y-119602380D01*
X112279761Y-119640476D01*
X112241666Y-119716666D01*
X112241666Y-119907142D01*
X112279761Y-119983333D01*
X112317857Y-120021428D01*
X112394047Y-120059523D01*
X112584523Y-120059523D01*
X112660714Y-120021428D01*
X112698809Y-119983333D01*
X112736904Y-119907142D01*
X112736904Y-119716666D01*
X112698809Y-119640476D01*
X112660714Y-119602380D01*
X107974404Y-118078571D02*
X107174404Y-118078571D01*
X107174404Y-118269047D01*
X107212500Y-118383333D01*
X107288690Y-118459523D01*
X107364880Y-118497619D01*
X107517261Y-118535714D01*
X107631547Y-118535714D01*
X107783928Y-118497619D01*
X107860119Y-118459523D01*
X107936309Y-118383333D01*
X107974404Y-118269047D01*
X107974404Y-118078571D01*
X107250595Y-118840476D02*
X107212500Y-118878571D01*
X107174404Y-118954761D01*
X107174404Y-119145238D01*
X107212500Y-119221428D01*
X107250595Y-119259523D01*
X107326785Y-119297619D01*
X107402976Y-119297619D01*
X107517261Y-119259523D01*
X107974404Y-118802380D01*
X107974404Y-119297619D01*
X107441071Y-119983333D02*
X107974404Y-119983333D01*
X107136309Y-119792857D02*
X107707738Y-119602380D01*
X107707738Y-120097619D01*
X69874404Y-118103571D02*
X69074404Y-118103571D01*
X69074404Y-118294047D01*
X69112500Y-118408333D01*
X69188690Y-118484523D01*
X69264880Y-118522619D01*
X69417261Y-118560714D01*
X69531547Y-118560714D01*
X69683928Y-118522619D01*
X69760119Y-118484523D01*
X69836309Y-118408333D01*
X69874404Y-118294047D01*
X69874404Y-118103571D01*
X69150595Y-118865476D02*
X69112500Y-118903571D01*
X69074404Y-118979761D01*
X69074404Y-119170238D01*
X69112500Y-119246428D01*
X69150595Y-119284523D01*
X69226785Y-119322619D01*
X69302976Y-119322619D01*
X69417261Y-119284523D01*
X69874404Y-118827380D01*
X69874404Y-119322619D01*
X69074404Y-119589285D02*
X69074404Y-120084523D01*
X69379166Y-119817857D01*
X69379166Y-119932142D01*
X69417261Y-120008333D01*
X69455357Y-120046428D01*
X69531547Y-120084523D01*
X69722023Y-120084523D01*
X69798214Y-120046428D01*
X69836309Y-120008333D01*
X69874404Y-119932142D01*
X69874404Y-119703571D01*
X69836309Y-119627380D01*
X69798214Y-119589285D01*
X131786904Y-99028571D02*
X130986904Y-99028571D01*
X130986904Y-99219047D01*
X131025000Y-99333333D01*
X131101190Y-99409523D01*
X131177380Y-99447619D01*
X131329761Y-99485714D01*
X131444047Y-99485714D01*
X131596428Y-99447619D01*
X131672619Y-99409523D01*
X131748809Y-99333333D01*
X131786904Y-99219047D01*
X131786904Y-99028571D01*
X131063095Y-99790476D02*
X131025000Y-99828571D01*
X130986904Y-99904761D01*
X130986904Y-100095238D01*
X131025000Y-100171428D01*
X131063095Y-100209523D01*
X131139285Y-100247619D01*
X131215476Y-100247619D01*
X131329761Y-100209523D01*
X131786904Y-99752380D01*
X131786904Y-100247619D01*
X131063095Y-100552380D02*
X131025000Y-100590476D01*
X130986904Y-100666666D01*
X130986904Y-100857142D01*
X131025000Y-100933333D01*
X131063095Y-100971428D01*
X131139285Y-101009523D01*
X131215476Y-101009523D01*
X131329761Y-100971428D01*
X131786904Y-100514285D01*
X131786904Y-101009523D01*
X107974404Y-99053571D02*
X107174404Y-99053571D01*
X107174404Y-99244047D01*
X107212500Y-99358333D01*
X107288690Y-99434523D01*
X107364880Y-99472619D01*
X107517261Y-99510714D01*
X107631547Y-99510714D01*
X107783928Y-99472619D01*
X107860119Y-99434523D01*
X107936309Y-99358333D01*
X107974404Y-99244047D01*
X107974404Y-99053571D01*
X107250595Y-99815476D02*
X107212500Y-99853571D01*
X107174404Y-99929761D01*
X107174404Y-100120238D01*
X107212500Y-100196428D01*
X107250595Y-100234523D01*
X107326785Y-100272619D01*
X107402976Y-100272619D01*
X107517261Y-100234523D01*
X107974404Y-99777380D01*
X107974404Y-100272619D01*
X107974404Y-101034523D02*
X107974404Y-100577380D01*
X107974404Y-100805952D02*
X107174404Y-100805952D01*
X107288690Y-100729761D01*
X107364880Y-100653571D01*
X107402976Y-100577380D01*
X88924404Y-99028571D02*
X88124404Y-99028571D01*
X88124404Y-99219047D01*
X88162500Y-99333333D01*
X88238690Y-99409523D01*
X88314880Y-99447619D01*
X88467261Y-99485714D01*
X88581547Y-99485714D01*
X88733928Y-99447619D01*
X88810119Y-99409523D01*
X88886309Y-99333333D01*
X88924404Y-99219047D01*
X88924404Y-99028571D01*
X88200595Y-99790476D02*
X88162500Y-99828571D01*
X88124404Y-99904761D01*
X88124404Y-100095238D01*
X88162500Y-100171428D01*
X88200595Y-100209523D01*
X88276785Y-100247619D01*
X88352976Y-100247619D01*
X88467261Y-100209523D01*
X88924404Y-99752380D01*
X88924404Y-100247619D01*
X88124404Y-100742857D02*
X88124404Y-100819047D01*
X88162500Y-100895238D01*
X88200595Y-100933333D01*
X88276785Y-100971428D01*
X88429166Y-101009523D01*
X88619642Y-101009523D01*
X88772023Y-100971428D01*
X88848214Y-100933333D01*
X88886309Y-100895238D01*
X88924404Y-100819047D01*
X88924404Y-100742857D01*
X88886309Y-100666666D01*
X88848214Y-100628571D01*
X88772023Y-100590476D01*
X88619642Y-100552380D01*
X88429166Y-100552380D01*
X88276785Y-100590476D01*
X88200595Y-100628571D01*
X88162500Y-100666666D01*
X88124404Y-100742857D01*
X69874404Y-99053571D02*
X69074404Y-99053571D01*
X69074404Y-99244047D01*
X69112500Y-99358333D01*
X69188690Y-99434523D01*
X69264880Y-99472619D01*
X69417261Y-99510714D01*
X69531547Y-99510714D01*
X69683928Y-99472619D01*
X69760119Y-99434523D01*
X69836309Y-99358333D01*
X69874404Y-99244047D01*
X69874404Y-99053571D01*
X69874404Y-100272619D02*
X69874404Y-99815476D01*
X69874404Y-100044047D02*
X69074404Y-100044047D01*
X69188690Y-99967857D01*
X69264880Y-99891666D01*
X69302976Y-99815476D01*
X69874404Y-100653571D02*
X69874404Y-100805952D01*
X69836309Y-100882142D01*
X69798214Y-100920238D01*
X69683928Y-100996428D01*
X69531547Y-101034523D01*
X69226785Y-101034523D01*
X69150595Y-100996428D01*
X69112500Y-100958333D01*
X69074404Y-100882142D01*
X69074404Y-100729761D01*
X69112500Y-100653571D01*
X69150595Y-100615476D01*
X69226785Y-100577380D01*
X69417261Y-100577380D01*
X69493452Y-100615476D01*
X69531547Y-100653571D01*
X69569642Y-100729761D01*
X69569642Y-100882142D01*
X69531547Y-100958333D01*
X69493452Y-100996428D01*
X69417261Y-101034523D01*
X50824404Y-108553571D02*
X50024404Y-108553571D01*
X50024404Y-108744047D01*
X50062500Y-108858333D01*
X50138690Y-108934523D01*
X50214880Y-108972619D01*
X50367261Y-109010714D01*
X50481547Y-109010714D01*
X50633928Y-108972619D01*
X50710119Y-108934523D01*
X50786309Y-108858333D01*
X50824404Y-108744047D01*
X50824404Y-108553571D01*
X50824404Y-109772619D02*
X50824404Y-109315476D01*
X50824404Y-109544047D02*
X50024404Y-109544047D01*
X50138690Y-109467857D01*
X50214880Y-109391666D01*
X50252976Y-109315476D01*
X50367261Y-110229761D02*
X50329166Y-110153571D01*
X50291071Y-110115476D01*
X50214880Y-110077380D01*
X50176785Y-110077380D01*
X50100595Y-110115476D01*
X50062500Y-110153571D01*
X50024404Y-110229761D01*
X50024404Y-110382142D01*
X50062500Y-110458333D01*
X50100595Y-110496428D01*
X50176785Y-110534523D01*
X50214880Y-110534523D01*
X50291071Y-110496428D01*
X50329166Y-110458333D01*
X50367261Y-110382142D01*
X50367261Y-110229761D01*
X50405357Y-110153571D01*
X50443452Y-110115476D01*
X50519642Y-110077380D01*
X50672023Y-110077380D01*
X50748214Y-110115476D01*
X50786309Y-110153571D01*
X50824404Y-110229761D01*
X50824404Y-110382142D01*
X50786309Y-110458333D01*
X50748214Y-110496428D01*
X50672023Y-110534523D01*
X50519642Y-110534523D01*
X50443452Y-110496428D01*
X50405357Y-110458333D01*
X50367261Y-110382142D01*
X107974404Y-79991071D02*
X107174404Y-79991071D01*
X107174404Y-80181547D01*
X107212500Y-80295833D01*
X107288690Y-80372023D01*
X107364880Y-80410119D01*
X107517261Y-80448214D01*
X107631547Y-80448214D01*
X107783928Y-80410119D01*
X107860119Y-80372023D01*
X107936309Y-80295833D01*
X107974404Y-80181547D01*
X107974404Y-79991071D01*
X107974404Y-81210119D02*
X107974404Y-80752976D01*
X107974404Y-80981547D02*
X107174404Y-80981547D01*
X107288690Y-80905357D01*
X107364880Y-80829166D01*
X107402976Y-80752976D01*
X107174404Y-81476785D02*
X107174404Y-82010119D01*
X107974404Y-81667261D01*
X89533928Y-81324404D02*
X89533928Y-80524404D01*
X89343452Y-80524404D01*
X89229166Y-80562500D01*
X89152976Y-80638690D01*
X89114880Y-80714880D01*
X89076785Y-80867261D01*
X89076785Y-80981547D01*
X89114880Y-81133928D01*
X89152976Y-81210119D01*
X89229166Y-81286309D01*
X89343452Y-81324404D01*
X89533928Y-81324404D01*
X88314880Y-81324404D02*
X88772023Y-81324404D01*
X88543452Y-81324404D02*
X88543452Y-80524404D01*
X88619642Y-80638690D01*
X88695833Y-80714880D01*
X88772023Y-80752976D01*
X87629166Y-80524404D02*
X87781547Y-80524404D01*
X87857738Y-80562500D01*
X87895833Y-80600595D01*
X87972023Y-80714880D01*
X88010119Y-80867261D01*
X88010119Y-81172023D01*
X87972023Y-81248214D01*
X87933928Y-81286309D01*
X87857738Y-81324404D01*
X87705357Y-81324404D01*
X87629166Y-81286309D01*
X87591071Y-81248214D01*
X87552976Y-81172023D01*
X87552976Y-80981547D01*
X87591071Y-80905357D01*
X87629166Y-80867261D01*
X87705357Y-80829166D01*
X87857738Y-80829166D01*
X87933928Y-80867261D01*
X87972023Y-80905357D01*
X88010119Y-80981547D01*
X69874404Y-79991071D02*
X69074404Y-79991071D01*
X69074404Y-80181547D01*
X69112500Y-80295833D01*
X69188690Y-80372023D01*
X69264880Y-80410119D01*
X69417261Y-80448214D01*
X69531547Y-80448214D01*
X69683928Y-80410119D01*
X69760119Y-80372023D01*
X69836309Y-80295833D01*
X69874404Y-80181547D01*
X69874404Y-79991071D01*
X69874404Y-81210119D02*
X69874404Y-80752976D01*
X69874404Y-80981547D02*
X69074404Y-80981547D01*
X69188690Y-80905357D01*
X69264880Y-80829166D01*
X69302976Y-80752976D01*
X69074404Y-81933928D02*
X69074404Y-81552976D01*
X69455357Y-81514880D01*
X69417261Y-81552976D01*
X69379166Y-81629166D01*
X69379166Y-81819642D01*
X69417261Y-81895833D01*
X69455357Y-81933928D01*
X69531547Y-81972023D01*
X69722023Y-81972023D01*
X69798214Y-81933928D01*
X69836309Y-81895833D01*
X69874404Y-81819642D01*
X69874404Y-81629166D01*
X69836309Y-81552976D01*
X69798214Y-81514880D01*
X164680654Y-68541071D02*
X163880654Y-68541071D01*
X163880654Y-68731547D01*
X163918750Y-68845833D01*
X163994940Y-68922023D01*
X164071130Y-68960119D01*
X164223511Y-68998214D01*
X164337797Y-68998214D01*
X164490178Y-68960119D01*
X164566369Y-68922023D01*
X164642559Y-68845833D01*
X164680654Y-68731547D01*
X164680654Y-68541071D01*
X164680654Y-69760119D02*
X164680654Y-69302976D01*
X164680654Y-69531547D02*
X163880654Y-69531547D01*
X163994940Y-69455357D01*
X164071130Y-69379166D01*
X164109226Y-69302976D01*
X164147321Y-70445833D02*
X164680654Y-70445833D01*
X163842559Y-70255357D02*
X164413988Y-70064880D01*
X164413988Y-70560119D01*
X146227678Y-69874404D02*
X146227678Y-69074404D01*
X146037202Y-69074404D01*
X145922916Y-69112500D01*
X145846726Y-69188690D01*
X145808630Y-69264880D01*
X145770535Y-69417261D01*
X145770535Y-69531547D01*
X145808630Y-69683928D01*
X145846726Y-69760119D01*
X145922916Y-69836309D01*
X146037202Y-69874404D01*
X146227678Y-69874404D01*
X145008630Y-69874404D02*
X145465773Y-69874404D01*
X145237202Y-69874404D02*
X145237202Y-69074404D01*
X145313392Y-69188690D01*
X145389583Y-69264880D01*
X145465773Y-69302976D01*
X144741964Y-69074404D02*
X144246726Y-69074404D01*
X144513392Y-69379166D01*
X144399107Y-69379166D01*
X144322916Y-69417261D01*
X144284821Y-69455357D01*
X144246726Y-69531547D01*
X144246726Y-69722023D01*
X144284821Y-69798214D01*
X144322916Y-69836309D01*
X144399107Y-69874404D01*
X144627678Y-69874404D01*
X144703869Y-69836309D01*
X144741964Y-69798214D01*
X112736904Y-60941071D02*
X111936904Y-60941071D01*
X111936904Y-61131547D01*
X111975000Y-61245833D01*
X112051190Y-61322023D01*
X112127380Y-61360119D01*
X112279761Y-61398214D01*
X112394047Y-61398214D01*
X112546428Y-61360119D01*
X112622619Y-61322023D01*
X112698809Y-61245833D01*
X112736904Y-61131547D01*
X112736904Y-60941071D01*
X112736904Y-62160119D02*
X112736904Y-61702976D01*
X112736904Y-61931547D02*
X111936904Y-61931547D01*
X112051190Y-61855357D01*
X112127380Y-61779166D01*
X112165476Y-61702976D01*
X112013095Y-62464880D02*
X111975000Y-62502976D01*
X111936904Y-62579166D01*
X111936904Y-62769642D01*
X111975000Y-62845833D01*
X112013095Y-62883928D01*
X112089285Y-62922023D01*
X112165476Y-62922023D01*
X112279761Y-62883928D01*
X112736904Y-62426785D01*
X112736904Y-62922023D01*
X107974404Y-60928571D02*
X107174404Y-60928571D01*
X107174404Y-61119047D01*
X107212500Y-61233333D01*
X107288690Y-61309523D01*
X107364880Y-61347619D01*
X107517261Y-61385714D01*
X107631547Y-61385714D01*
X107783928Y-61347619D01*
X107860119Y-61309523D01*
X107936309Y-61233333D01*
X107974404Y-61119047D01*
X107974404Y-60928571D01*
X107974404Y-62147619D02*
X107974404Y-61690476D01*
X107974404Y-61919047D02*
X107174404Y-61919047D01*
X107288690Y-61842857D01*
X107364880Y-61766666D01*
X107402976Y-61690476D01*
X107974404Y-62909523D02*
X107974404Y-62452380D01*
X107974404Y-62680952D02*
X107174404Y-62680952D01*
X107288690Y-62604761D01*
X107364880Y-62528571D01*
X107402976Y-62452380D01*
X88924404Y-60928571D02*
X88124404Y-60928571D01*
X88124404Y-61119047D01*
X88162500Y-61233333D01*
X88238690Y-61309523D01*
X88314880Y-61347619D01*
X88467261Y-61385714D01*
X88581547Y-61385714D01*
X88733928Y-61347619D01*
X88810119Y-61309523D01*
X88886309Y-61233333D01*
X88924404Y-61119047D01*
X88924404Y-60928571D01*
X88924404Y-62147619D02*
X88924404Y-61690476D01*
X88924404Y-61919047D02*
X88124404Y-61919047D01*
X88238690Y-61842857D01*
X88314880Y-61766666D01*
X88352976Y-61690476D01*
X88124404Y-62642857D02*
X88124404Y-62719047D01*
X88162500Y-62795238D01*
X88200595Y-62833333D01*
X88276785Y-62871428D01*
X88429166Y-62909523D01*
X88619642Y-62909523D01*
X88772023Y-62871428D01*
X88848214Y-62833333D01*
X88886309Y-62795238D01*
X88924404Y-62719047D01*
X88924404Y-62642857D01*
X88886309Y-62566666D01*
X88848214Y-62528571D01*
X88772023Y-62490476D01*
X88619642Y-62452380D01*
X88429166Y-62452380D01*
X88276785Y-62490476D01*
X88200595Y-62528571D01*
X88162500Y-62566666D01*
X88124404Y-62642857D01*
X69874404Y-61322023D02*
X69074404Y-61322023D01*
X69074404Y-61512500D01*
X69112500Y-61626785D01*
X69188690Y-61702976D01*
X69264880Y-61741071D01*
X69417261Y-61779166D01*
X69531547Y-61779166D01*
X69683928Y-61741071D01*
X69760119Y-61702976D01*
X69836309Y-61626785D01*
X69874404Y-61512500D01*
X69874404Y-61322023D01*
X69874404Y-62160119D02*
X69874404Y-62312500D01*
X69836309Y-62388690D01*
X69798214Y-62426785D01*
X69683928Y-62502976D01*
X69531547Y-62541071D01*
X69226785Y-62541071D01*
X69150595Y-62502976D01*
X69112500Y-62464880D01*
X69074404Y-62388690D01*
X69074404Y-62236309D01*
X69112500Y-62160119D01*
X69150595Y-62122023D01*
X69226785Y-62083928D01*
X69417261Y-62083928D01*
X69493452Y-62122023D01*
X69531547Y-62160119D01*
X69569642Y-62236309D01*
X69569642Y-62388690D01*
X69531547Y-62464880D01*
X69493452Y-62502976D01*
X69417261Y-62541071D01*
X50824404Y-70859523D02*
X50024404Y-70859523D01*
X50024404Y-71050000D01*
X50062500Y-71164285D01*
X50138690Y-71240476D01*
X50214880Y-71278571D01*
X50367261Y-71316666D01*
X50481547Y-71316666D01*
X50633928Y-71278571D01*
X50710119Y-71240476D01*
X50786309Y-71164285D01*
X50824404Y-71050000D01*
X50824404Y-70859523D01*
X50367261Y-71773809D02*
X50329166Y-71697619D01*
X50291071Y-71659523D01*
X50214880Y-71621428D01*
X50176785Y-71621428D01*
X50100595Y-71659523D01*
X50062500Y-71697619D01*
X50024404Y-71773809D01*
X50024404Y-71926190D01*
X50062500Y-72002380D01*
X50100595Y-72040476D01*
X50176785Y-72078571D01*
X50214880Y-72078571D01*
X50291071Y-72040476D01*
X50329166Y-72002380D01*
X50367261Y-71926190D01*
X50367261Y-71773809D01*
X50405357Y-71697619D01*
X50443452Y-71659523D01*
X50519642Y-71621428D01*
X50672023Y-71621428D01*
X50748214Y-71659523D01*
X50786309Y-71697619D01*
X50824404Y-71773809D01*
X50824404Y-71926190D01*
X50786309Y-72002380D01*
X50748214Y-72040476D01*
X50672023Y-72078571D01*
X50519642Y-72078571D01*
X50443452Y-72040476D01*
X50405357Y-72002380D01*
X50367261Y-71926190D01*
X162515476Y-31774404D02*
X162515476Y-30974404D01*
X162325000Y-30974404D01*
X162210714Y-31012500D01*
X162134523Y-31088690D01*
X162096428Y-31164880D01*
X162058333Y-31317261D01*
X162058333Y-31431547D01*
X162096428Y-31583928D01*
X162134523Y-31660119D01*
X162210714Y-31736309D01*
X162325000Y-31774404D01*
X162515476Y-31774404D01*
X161791666Y-30974404D02*
X161258333Y-30974404D01*
X161601190Y-31774404D01*
X124415476Y-31774404D02*
X124415476Y-30974404D01*
X124225000Y-30974404D01*
X124110714Y-31012500D01*
X124034523Y-31088690D01*
X123996428Y-31164880D01*
X123958333Y-31317261D01*
X123958333Y-31431547D01*
X123996428Y-31583928D01*
X124034523Y-31660119D01*
X124110714Y-31736309D01*
X124225000Y-31774404D01*
X124415476Y-31774404D01*
X123272619Y-30974404D02*
X123425000Y-30974404D01*
X123501190Y-31012500D01*
X123539285Y-31050595D01*
X123615476Y-31164880D01*
X123653571Y-31317261D01*
X123653571Y-31622023D01*
X123615476Y-31698214D01*
X123577380Y-31736309D01*
X123501190Y-31774404D01*
X123348809Y-31774404D01*
X123272619Y-31736309D01*
X123234523Y-31698214D01*
X123196428Y-31622023D01*
X123196428Y-31431547D01*
X123234523Y-31355357D01*
X123272619Y-31317261D01*
X123348809Y-31279166D01*
X123501190Y-31279166D01*
X123577380Y-31317261D01*
X123615476Y-31355357D01*
X123653571Y-31431547D01*
X112736904Y-42272023D02*
X111936904Y-42272023D01*
X111936904Y-42462500D01*
X111975000Y-42576785D01*
X112051190Y-42652976D01*
X112127380Y-42691071D01*
X112279761Y-42729166D01*
X112394047Y-42729166D01*
X112546428Y-42691071D01*
X112622619Y-42652976D01*
X112698809Y-42576785D01*
X112736904Y-42462500D01*
X112736904Y-42272023D01*
X111936904Y-43452976D02*
X111936904Y-43072023D01*
X112317857Y-43033928D01*
X112279761Y-43072023D01*
X112241666Y-43148214D01*
X112241666Y-43338690D01*
X112279761Y-43414880D01*
X112317857Y-43452976D01*
X112394047Y-43491071D01*
X112584523Y-43491071D01*
X112660714Y-43452976D01*
X112698809Y-43414880D01*
X112736904Y-43338690D01*
X112736904Y-43148214D01*
X112698809Y-43072023D01*
X112660714Y-43033928D01*
X107974404Y-42272023D02*
X107174404Y-42272023D01*
X107174404Y-42462500D01*
X107212500Y-42576785D01*
X107288690Y-42652976D01*
X107364880Y-42691071D01*
X107517261Y-42729166D01*
X107631547Y-42729166D01*
X107783928Y-42691071D01*
X107860119Y-42652976D01*
X107936309Y-42576785D01*
X107974404Y-42462500D01*
X107974404Y-42272023D01*
X107441071Y-43414880D02*
X107974404Y-43414880D01*
X107136309Y-43224404D02*
X107707738Y-43033928D01*
X107707738Y-43529166D01*
X88924404Y-42272023D02*
X88124404Y-42272023D01*
X88124404Y-42462500D01*
X88162500Y-42576785D01*
X88238690Y-42652976D01*
X88314880Y-42691071D01*
X88467261Y-42729166D01*
X88581547Y-42729166D01*
X88733928Y-42691071D01*
X88810119Y-42652976D01*
X88886309Y-42576785D01*
X88924404Y-42462500D01*
X88924404Y-42272023D01*
X88124404Y-42995833D02*
X88124404Y-43491071D01*
X88429166Y-43224404D01*
X88429166Y-43338690D01*
X88467261Y-43414880D01*
X88505357Y-43452976D01*
X88581547Y-43491071D01*
X88772023Y-43491071D01*
X88848214Y-43452976D01*
X88886309Y-43414880D01*
X88924404Y-43338690D01*
X88924404Y-43110119D01*
X88886309Y-43033928D01*
X88848214Y-42995833D01*
X69874404Y-42272023D02*
X69074404Y-42272023D01*
X69074404Y-42462500D01*
X69112500Y-42576785D01*
X69188690Y-42652976D01*
X69264880Y-42691071D01*
X69417261Y-42729166D01*
X69531547Y-42729166D01*
X69683928Y-42691071D01*
X69760119Y-42652976D01*
X69836309Y-42576785D01*
X69874404Y-42462500D01*
X69874404Y-42272023D01*
X69150595Y-43033928D02*
X69112500Y-43072023D01*
X69074404Y-43148214D01*
X69074404Y-43338690D01*
X69112500Y-43414880D01*
X69150595Y-43452976D01*
X69226785Y-43491071D01*
X69302976Y-43491071D01*
X69417261Y-43452976D01*
X69874404Y-42995833D01*
X69874404Y-43491071D01*
X50824404Y-42272023D02*
X50024404Y-42272023D01*
X50024404Y-42462500D01*
X50062500Y-42576785D01*
X50138690Y-42652976D01*
X50214880Y-42691071D01*
X50367261Y-42729166D01*
X50481547Y-42729166D01*
X50633928Y-42691071D01*
X50710119Y-42652976D01*
X50786309Y-42576785D01*
X50824404Y-42462500D01*
X50824404Y-42272023D01*
X50824404Y-43491071D02*
X50824404Y-43033928D01*
X50824404Y-43262500D02*
X50024404Y-43262500D01*
X50138690Y-43186309D01*
X50214880Y-43110119D01*
X50252976Y-43033928D01*
%LPC*%
D13*
X164465000Y-37782500D03*
D14*
X161925000Y-42862500D03*
D13*
X158115000Y-40322500D03*
D15*
X156845000Y-42862500D03*
X167005000Y-42862500D03*
D13*
X45402500Y-37782500D03*
D14*
X42862500Y-42862500D03*
D13*
X39052500Y-40322500D03*
D15*
X37782500Y-42862500D03*
X47942500Y-42862500D03*
D13*
X126365000Y-37782500D03*
D14*
X123825000Y-42862500D03*
D13*
X120015000Y-40322500D03*
D15*
X118745000Y-42862500D03*
X128905000Y-42862500D03*
D13*
X126365000Y-56832500D03*
D14*
X123825000Y-61912500D03*
D13*
X120015000Y-59372500D03*
D15*
X118745000Y-61912500D03*
X128905000Y-61912500D03*
D16*
X135255000Y-32067500D03*
X150495000Y-60007500D03*
X135255000Y-34607500D03*
X135255000Y-37147500D03*
X135255000Y-39687500D03*
X135255000Y-42227500D03*
X135255000Y-44767500D03*
X135255000Y-47307500D03*
X135255000Y-49847500D03*
X135255000Y-52387500D03*
X135255000Y-54927500D03*
X135255000Y-57467500D03*
X135255000Y-60007500D03*
X150495000Y-57467500D03*
X150495000Y-54927500D03*
X150495000Y-52387500D03*
X150495000Y-49847500D03*
X150495000Y-47307500D03*
X150495000Y-44767500D03*
X150495000Y-42227500D03*
X150495000Y-39687500D03*
X150495000Y-37147500D03*
X150495000Y-34607500D03*
D17*
X150495000Y-32067500D03*
D13*
X93027500Y-113982500D03*
D14*
X90487500Y-119062500D03*
D13*
X86677500Y-116522500D03*
D15*
X85407500Y-119062500D03*
X95567500Y-119062500D03*
D18*
X78581250Y-126047500D03*
X102393750Y-126047500D03*
D14*
X78581250Y-110807500D03*
X102393750Y-110807500D03*
D13*
X164465000Y-113982500D03*
D14*
X161925000Y-119062500D03*
D13*
X158115000Y-116522500D03*
D15*
X156845000Y-119062500D03*
X167005000Y-119062500D03*
D13*
X145415000Y-113982500D03*
D14*
X142875000Y-119062500D03*
D13*
X139065000Y-116522500D03*
D15*
X137795000Y-119062500D03*
X147955000Y-119062500D03*
D13*
X126365000Y-113982500D03*
D14*
X123825000Y-119062500D03*
D13*
X120015000Y-116522500D03*
D15*
X118745000Y-119062500D03*
X128905000Y-119062500D03*
D13*
X64452500Y-113982500D03*
D14*
X61912500Y-119062500D03*
D13*
X58102500Y-116522500D03*
D15*
X56832500Y-119062500D03*
X66992500Y-119062500D03*
D13*
X145415000Y-94932500D03*
D14*
X142875000Y-100012500D03*
D13*
X139065000Y-97472500D03*
D15*
X137795000Y-100012500D03*
X147955000Y-100012500D03*
D13*
X102552500Y-94932500D03*
D14*
X100012500Y-100012500D03*
D13*
X96202500Y-97472500D03*
D15*
X94932500Y-100012500D03*
X105092500Y-100012500D03*
D13*
X83502500Y-94932500D03*
D14*
X80962500Y-100012500D03*
D13*
X77152500Y-97472500D03*
D15*
X75882500Y-100012500D03*
X86042500Y-100012500D03*
D13*
X64452500Y-94932500D03*
D14*
X61912500Y-100012500D03*
D13*
X58102500Y-97472500D03*
D15*
X56832500Y-100012500D03*
X66992500Y-100012500D03*
D13*
X37782500Y-106997500D03*
D14*
X42862500Y-109537500D03*
D13*
X40322500Y-113347500D03*
D15*
X42862500Y-114617500D03*
X42862500Y-104457500D03*
D18*
X35877500Y-121443750D03*
X35877500Y-97631250D03*
D14*
X51117500Y-121443750D03*
X51117500Y-97631250D03*
D13*
X102552500Y-75882500D03*
D14*
X100012500Y-80962500D03*
D13*
X96202500Y-78422500D03*
D15*
X94932500Y-80962500D03*
X105092500Y-80962500D03*
D13*
X83502500Y-75882500D03*
D14*
X80962500Y-80962500D03*
D13*
X77152500Y-78422500D03*
D15*
X75882500Y-80962500D03*
X86042500Y-80962500D03*
D13*
X64452500Y-75882500D03*
D14*
X61912500Y-80962500D03*
D13*
X58102500Y-78422500D03*
D15*
X56832500Y-80962500D03*
X66992500Y-80962500D03*
D13*
X164465000Y-56832500D03*
D14*
X161925000Y-61912500D03*
D13*
X158115000Y-59372500D03*
D15*
X156845000Y-61912500D03*
X167005000Y-61912500D03*
D13*
X145415000Y-56832500D03*
D14*
X142875000Y-61912500D03*
D13*
X139065000Y-59372500D03*
D15*
X137795000Y-61912500D03*
X147955000Y-61912500D03*
D13*
X102552500Y-56832500D03*
D14*
X100012500Y-61912500D03*
D13*
X96202500Y-59372500D03*
D15*
X94932500Y-61912500D03*
X105092500Y-61912500D03*
D13*
X83502500Y-56832500D03*
D14*
X80962500Y-61912500D03*
D13*
X77152500Y-59372500D03*
D15*
X75882500Y-61912500D03*
X86042500Y-61912500D03*
D13*
X64452500Y-56832500D03*
D14*
X61912500Y-61912500D03*
D13*
X58102500Y-59372500D03*
D15*
X56832500Y-61912500D03*
X66992500Y-61912500D03*
D13*
X37782500Y-68897500D03*
D14*
X42862500Y-71437500D03*
D13*
X40322500Y-75247500D03*
D15*
X42862500Y-76517500D03*
X42862500Y-66357500D03*
D18*
X35877500Y-83343750D03*
X35877500Y-59531250D03*
D14*
X51117500Y-83343750D03*
X51117500Y-59531250D03*
D13*
X145415000Y-37782500D03*
D14*
X142875000Y-42862500D03*
D13*
X139065000Y-40322500D03*
D15*
X137795000Y-42862500D03*
X147955000Y-42862500D03*
D13*
X102552500Y-37782500D03*
D14*
X100012500Y-42862500D03*
D13*
X96202500Y-40322500D03*
D15*
X94932500Y-42862500D03*
X105092500Y-42862500D03*
D13*
X83502500Y-37782500D03*
D14*
X80962500Y-42862500D03*
D13*
X77152500Y-40322500D03*
D15*
X75882500Y-42862500D03*
X86042500Y-42862500D03*
D13*
X64452500Y-37782500D03*
D14*
X61912500Y-42862500D03*
D13*
X58102500Y-40322500D03*
D15*
X56832500Y-42862500D03*
X66992500Y-42862500D03*
D19*
X152400000Y-115162500D03*
D20*
X152400000Y-122962500D03*
D21*
X152400000Y-120637500D03*
X152400000Y-117487500D03*
D19*
X133350000Y-115150000D03*
D20*
X133350000Y-122950000D03*
D21*
X133350000Y-120625000D03*
X133350000Y-117475000D03*
D19*
X114300000Y-115150000D03*
D20*
X114300000Y-122950000D03*
D21*
X114300000Y-120625000D03*
X114300000Y-117475000D03*
D19*
X109537500Y-115150000D03*
D20*
X109537500Y-122950000D03*
D21*
X109537500Y-120625000D03*
X109537500Y-117475000D03*
D19*
X71437500Y-115175000D03*
D20*
X71437500Y-122975000D03*
D21*
X71437500Y-120650000D03*
X71437500Y-117500000D03*
D19*
X133350000Y-96100000D03*
D20*
X133350000Y-103900000D03*
D21*
X133350000Y-101575000D03*
X133350000Y-98425000D03*
D19*
X109537500Y-96125000D03*
D20*
X109537500Y-103925000D03*
D21*
X109537500Y-101600000D03*
X109537500Y-98450000D03*
D19*
X90487500Y-96100000D03*
D20*
X90487500Y-103900000D03*
D21*
X90487500Y-101575000D03*
X90487500Y-98425000D03*
D19*
X71437500Y-96125000D03*
D20*
X71437500Y-103925000D03*
D21*
X71437500Y-101600000D03*
X71437500Y-98450000D03*
D19*
X52387500Y-105625000D03*
D20*
X52387500Y-113425000D03*
D21*
X52387500Y-111100000D03*
X52387500Y-107950000D03*
D19*
X109537500Y-77062500D03*
D20*
X109537500Y-84862500D03*
D21*
X109537500Y-82537500D03*
X109537500Y-79387500D03*
D19*
X90487500Y-77062500D03*
D20*
X90487500Y-84862500D03*
D21*
X90487500Y-82537500D03*
X90487500Y-79387500D03*
D19*
X71437500Y-77062500D03*
D20*
X71437500Y-84862500D03*
D21*
X71437500Y-82537500D03*
X71437500Y-79387500D03*
D19*
X168218750Y-71437500D03*
D20*
X160418750Y-71437500D03*
D21*
X162743750Y-71437500D03*
X165893750Y-71437500D03*
D19*
X149156250Y-71437500D03*
D20*
X141356250Y-71437500D03*
D21*
X143681250Y-71437500D03*
X146831250Y-71437500D03*
D19*
X114300000Y-58012500D03*
D20*
X114300000Y-65812500D03*
D21*
X114300000Y-63487500D03*
X114300000Y-60337500D03*
D19*
X109537500Y-58000000D03*
D20*
X109537500Y-65800000D03*
D21*
X109537500Y-63475000D03*
X109537500Y-60325000D03*
D19*
X90487500Y-58000000D03*
D20*
X90487500Y-65800000D03*
D21*
X90487500Y-63475000D03*
X90487500Y-60325000D03*
D19*
X71437500Y-58012500D03*
D20*
X71437500Y-65812500D03*
D21*
X71437500Y-63487500D03*
X71437500Y-60337500D03*
D19*
X52387500Y-67550000D03*
D20*
X52387500Y-75350000D03*
D21*
X52387500Y-73025000D03*
X52387500Y-69875000D03*
D19*
X165825000Y-33337500D03*
D20*
X158025000Y-33337500D03*
D21*
X160350000Y-33337500D03*
X163500000Y-33337500D03*
D19*
X127725000Y-33337500D03*
D20*
X119925000Y-33337500D03*
D21*
X122250000Y-33337500D03*
X125400000Y-33337500D03*
D19*
X114300000Y-38962500D03*
D20*
X114300000Y-46762500D03*
D21*
X114300000Y-44437500D03*
X114300000Y-41287500D03*
D19*
X109537500Y-38962500D03*
D20*
X109537500Y-46762500D03*
D21*
X109537500Y-44437500D03*
X109537500Y-41287500D03*
D19*
X90487500Y-38962500D03*
D20*
X90487500Y-46762500D03*
D21*
X90487500Y-44437500D03*
X90487500Y-41287500D03*
D19*
X71437500Y-38962500D03*
D20*
X71437500Y-46762500D03*
D21*
X71437500Y-44437500D03*
X71437500Y-41287500D03*
D19*
X52387500Y-38962500D03*
D20*
X52387500Y-46762500D03*
D21*
X52387500Y-44437500D03*
X52387500Y-41287500D03*
M02*
